<svg width="72" height="77" viewBox="0 0 72 77" fill="none" xmlns="http://www.w3.org/2000/svg">
<path d="M49.5807 19.2505C45.6305 19.2505 41.9743 19.9302 38.7441 21.1845L40.4893 2.66988C40.6412 1.0998 39.3488 -0.177015 37.8751 0.0199968C26.6672 1.5239 18.0005 11.6768 18.0005 23.9772C18.0005 28.2017 18.6362 32.1119 19.809 35.5663L2.49662 33.7C1.0285 33.5376 -0.165406 34.9197 0.0188125 36.4957C1.42506 48.4819 10.9187 57.7505 22.4204 57.7505C26.3705 57.7505 30.0268 57.0707 33.2569 55.8164L31.5118 74.331C31.3641 75.8996 32.6522 77.1779 34.126 76.9809C45.3338 75.477 54.0005 65.3241 54.0005 53.0237C54.0005 48.7992 53.3649 44.8891 52.1921 41.4346L69.5044 43.3009C70.9726 43.4588 72.1665 42.0813 71.9823 40.5052C70.576 28.519 61.0824 19.2505 49.5807 19.2505V19.2505ZM36.0005 43.313C35.1105 43.313 34.2405 43.0307 33.5005 42.5019C32.7604 41.9731 32.1837 41.2215 31.8431 40.3421C31.5025 39.4628 31.4134 38.4951 31.587 37.5616C31.7606 36.628 32.1892 35.7705 32.8186 35.0975C33.4479 34.4245 34.2497 33.9661 35.1226 33.7804C35.9955 33.5947 36.9003 33.69 37.7226 34.0543C38.5449 34.4185 39.2477 35.0354 39.7421 35.8268C40.2366 36.6182 40.5005 37.5486 40.5005 38.5005C40.5005 39.7768 40.0264 41.0009 39.1825 41.9034C38.3386 42.8059 37.194 43.313 36.0005 43.313V43.313Z" fill="white"/>
</svg>
