<svg width="190" height="220" viewBox="0 0 190 220" fill="none" xmlns="http://www.w3.org/2000/svg">
<path d="M180.19 83.8797L99.5088 1.89499C98.3153 0.683136 96.6958 0.00167847 95.005 0C95.0033 0 95.0017 0 95 0C93.3109 0 91.693 0.6781 90.4995 1.88827L9.85142 83.5474C3.4993 89.9809 0 98.5344 0 107.632V199.748C0 210.836 8.84854 220 20.0012 220H169.999C181.027 220 190 210.914 190 199.748V107.92C190 98.8466 186.516 90.3082 180.19 83.8797ZM88.6346 110.458H84.7723C75.1248 110.458 67.2758 102.511 67.2758 92.7403V88.8312H71.1365C80.7856 88.8312 88.6346 96.7787 88.6346 106.547V110.458ZM177.269 199.748C177.269 203.806 174.007 207.109 169.997 207.109H101.365V164.772H125.681C142.349 164.772 155.909 151.04 155.909 134.163V123.807C155.909 120.249 153.059 117.362 149.543 117.362H139.317C122.65 117.362 109.088 131.093 109.088 147.97V151.881H101.365V106.549C101.365 89.6704 87.8041 75.9406 71.1365 75.9406H60.9104C57.3945 75.9406 54.545 78.8258 54.545 82.3859V92.742C54.545 109.619 68.1046 123.349 84.7723 123.349H88.6346V179.495H80.9116V175.584C80.9116 158.707 67.3504 144.978 50.6827 144.978H40.455C36.9408 144.978 34.0896 147.863 34.0896 151.423V161.777C34.0896 178.654 47.6508 192.386 64.3185 192.386H88.6346V207.109H20.0012C15.9963 207.109 12.7308 203.828 12.7308 199.748V107.63C12.7308 101.977 14.9056 96.6612 18.8541 92.6614L94.9917 15.5678L171.172 92.9787C175.103 96.9734 177.269 102.281 177.269 107.92V199.748ZM121.819 151.881V147.97C121.819 138.202 129.668 130.252 139.317 130.252H143.178V134.163C143.178 143.932 135.329 151.881 125.681 151.881H121.819ZM68.1809 179.495H64.3185C54.671 179.495 46.8204 171.546 46.8204 161.777V157.867H50.6827C60.3302 157.867 68.1809 165.816 68.1809 175.584V179.495Z" fill="white"/>
</svg>
