<svg width="18" height="17" viewBox="0 0 18 17" fill="none" xmlns="http://www.w3.org/2000/svg">
<path d="M17.5656 13.7459C16.8937 13.6474 16.25 13.3152 15.7563 12.8066C15.3156 12.3513 14.6875 12.3431 14.25 12.8066C13.0656 14.0535 10.9 14.0535 9.69687 12.7451C9.275 12.2857 8.66563 12.3718 8.2375 12.8189C7.05 14.0535 4.89688 14.0494 3.7 12.7492C3.27813 12.2898 2.65938 12.3841 2.22813 12.8312C1.74375 13.3316 1.10313 13.6556 0.425 13.75C0.178125 13.7828 0 14.0699 0 14.3939V15.7146C0 16.0879 0.2375 16.4037 0.521875 16.3709C1.42188 16.2683 2.275 15.9033 3.00312 15.3086C4.76875 16.7277 7.28438 16.7072 9.00313 15.3086C10.7688 16.7277 13.2844 16.7072 15.0031 15.3086C15.7313 15.891 16.5938 16.2642 17.475 16.3668C17.7594 16.3996 17.9969 16.0838 17.9969 15.7105V14.4144C18 14.0863 17.8187 13.7828 17.5656 13.7459V13.7459ZM17.5656 7.83962C16.8937 7.74118 16.25 7.40895 15.7563 6.90036C15.3156 6.44509 14.6875 6.43688 14.25 6.90036C13.0656 8.14723 10.9 8.14723 9.69687 6.83884C9.275 6.37946 8.66563 6.46559 8.2375 6.91266C7.05 8.14723 4.89688 8.14313 3.7 6.84294C3.27813 6.38356 2.65938 6.4779 2.22813 6.92497C1.74375 7.42536 1.10313 7.74938 0.425 7.84372C0.178125 7.87653 0 8.16364 0 8.48766V9.80837C0 10.1816 0.2375 10.4974 0.521875 10.4646C1.42188 10.3621 2.275 9.99704 3.00312 9.40231C4.76875 10.8215 7.28438 10.8009 9.00313 9.40231C10.7688 10.8215 13.2844 10.8009 15.0031 9.40231C15.7313 9.98473 16.5938 10.358 17.475 10.4605C17.7594 10.4933 17.9969 10.1775 17.9969 9.80427V8.50817C18 8.18005 17.8187 7.87653 17.5656 7.83962V7.83962ZM17.5656 1.93337C16.8937 1.83083 16.25 1.5027 15.7563 0.99411C15.3156 0.538837 14.6875 0.530634 14.25 0.99411C13.0656 2.24099 10.9 2.24099 9.69687 0.932587C9.275 0.473212 8.66563 0.559345 8.2375 1.00641C7.05 2.24099 4.89688 2.23688 3.7 0.936688C3.27813 0.477313 2.65938 0.571649 2.22813 1.01872C1.74375 1.51911 1.10313 1.84313 0.425 1.93747C0.178125 1.97028 0 2.25739 0 2.58141V3.90212C0 4.27536 0.2375 4.59118 0.521875 4.55837C1.42188 4.45583 2.275 4.09079 3.00312 3.49606C4.76875 4.9152 7.28438 4.8947 9.00313 3.49606C10.7688 4.9152 13.2844 4.8947 15.0031 3.49606C15.7313 4.07848 16.5938 4.45173 17.475 4.55427C17.7594 4.58708 17.9969 4.27126 17.9969 3.89802V2.60192C18 2.2738 17.8187 1.97028 17.5656 1.93337V1.93337Z" fill="white"/>
</svg>
