<svg width="55" height="77" viewBox="0 0 55 77" fill="none" xmlns="http://www.w3.org/2000/svg">
<path d="M15.0094 68.3258C15.0109 69.2718 15.3016 70.1982 15.8469 70.9863L18.5172 74.8498C18.9734 75.5102 19.5921 76.0519 20.3183 76.4266C21.0445 76.8013 21.8557 76.9973 22.6797 76.9974H32.3219C33.1459 76.9973 33.9571 76.8013 34.6833 76.4266C35.4095 76.0519 36.0282 75.5102 36.4844 74.8498L39.1547 70.9863C39.6998 70.1981 39.9911 69.2726 39.9922 68.3258L39.9984 62.5584H15.0016L15.0094 68.3258ZM0 26.4646C0 33.1374 2.57031 39.2253 6.80625 43.8768C9.3875 46.7117 13.425 52.6341 14.9641 57.6301C14.9703 57.6692 14.975 57.7083 14.9813 57.7474H40.0187C40.025 57.7083 40.0297 57.6707 40.0359 57.6301C41.575 52.6341 45.6125 46.7117 48.1938 43.8768C52.4297 39.2253 55 33.1374 55 26.4646C55 11.8181 42.6422 -0.0492614 27.4141 -0.00414424C11.475 0.0424769 0 12.4738 0 26.4646ZM27.5 14.4334C20.6078 14.4334 15 19.8309 15 26.4646C15 27.7941 13.8813 28.8709 12.5 28.8709C11.1188 28.8709 10 27.7941 10 26.4646C10 17.1765 17.85 9.62086 27.5 9.62086C28.8813 9.62086 30 10.6977 30 12.0271C30 13.3566 28.8813 14.4334 27.5 14.4334Z" fill="white"/>
</svg>
