<svg width="14" height="20" viewBox="0 0 14 20" fill="none" xmlns="http://www.w3.org/2000/svg">
<path d="M3.82057 17.3931C3.82097 17.6339 3.89494 17.8697 4.03375 18.0703L4.71347 19.0538C4.82958 19.2219 4.98707 19.3598 5.17193 19.4551C5.35679 19.5505 5.56327 19.6004 5.77301 19.6004H8.22739C8.43713 19.6004 8.64361 19.5505 8.82847 19.4551C9.01332 19.3598 9.17082 19.2219 9.28693 19.0538L9.96665 18.0703C10.1054 17.8697 10.1796 17.6341 10.1798 17.3931L10.1814 15.925H3.81858L3.82057 17.3931ZM0 6.73753C0 8.43607 0.654261 9.9857 1.7325 11.1697C2.38955 11.8913 3.41727 13.3989 3.80903 14.6706C3.81062 14.6805 3.81182 14.6905 3.81341 14.7004H10.1866C10.1882 14.6905 10.1894 14.6809 10.191 14.6706C10.5827 13.3989 11.6105 11.8913 12.2675 11.1697C13.3457 9.9857 14 8.43607 14 6.73753C14 3.00932 10.8544 -0.0114517 6.97813 3.26378e-05C2.92091 0.0118998 0 3.17623 0 6.73753ZM7 3.67503C5.24562 3.67503 3.81818 5.04895 3.81818 6.73753C3.81818 7.07594 3.53341 7.35003 3.18182 7.35003C2.83023 7.35003 2.54545 7.07594 2.54545 6.73753C2.54545 4.37328 4.54364 2.45003 7 2.45003C7.35159 2.45003 7.63636 2.72413 7.63636 3.06253C7.63636 3.40094 7.35159 3.67503 7 3.67503Z" fill="white"/>
</svg>
