<svg width="69" height="60" viewBox="0 0 69 60" fill="none" xmlns="http://www.w3.org/2000/svg">
<path d="M67.3349 49.9846C64.7594 49.6096 62.2917 48.344 60.399 46.4065C58.7099 44.6721 56.3021 44.6409 54.625 46.4065C50.0849 51.1565 41.7833 51.1565 37.1714 46.1721C35.5542 44.4221 33.2182 44.7503 31.5771 46.4534C27.025 51.1565 18.7714 51.1409 14.1833 46.1878C12.5661 44.4378 10.1943 44.7971 8.54115 46.5003C6.68437 48.4065 4.22865 49.6409 1.62917 50.0003C0.682813 50.1253 0 51.219 0 52.4534V57.4846C0 58.9065 0.910417 60.1096 2.00052 59.9846C5.45052 59.594 8.72083 58.2034 11.512 55.9378C18.2802 61.344 27.9234 61.2659 34.512 55.9378C41.2802 61.344 50.9234 61.2659 57.512 55.9378C60.3031 58.1565 63.6094 59.5784 66.9875 59.969C68.0776 60.094 68.988 58.8909 68.988 57.469V52.5315C69 51.2815 68.3052 50.1253 67.3349 49.9846ZM67.3349 27.4846C64.7594 27.1096 62.2917 25.844 60.399 23.9065C58.7099 22.1721 56.3021 22.1409 54.625 23.9065C50.0849 28.6565 41.7833 28.6565 37.1714 23.6721C35.5542 21.9221 33.2182 22.2503 31.5771 23.9534C27.025 28.6565 18.7714 28.6409 14.1833 23.6878C12.5661 21.9378 10.1943 22.2971 8.54115 24.0003C6.68437 25.9065 4.22865 27.1409 1.62917 27.5003C0.682813 27.6253 0 28.719 0 29.9534V34.9846C0 36.4065 0.910417 37.6096 2.00052 37.4846C5.45052 37.094 8.72083 35.7034 11.512 33.4378C18.2802 38.844 27.9234 38.7659 34.512 33.4378C41.2802 38.844 50.9234 38.7659 57.512 33.4378C60.3031 35.6565 63.6094 37.0784 66.9875 37.469C68.0776 37.594 68.988 36.3909 68.988 34.969V30.0315C69 28.7815 68.3052 27.6253 67.3349 27.4846ZM67.3349 4.98463C64.7594 4.59401 62.2917 3.34401 60.399 1.40651C58.7099 -0.327869 56.3021 -0.359119 54.625 1.40651C50.0849 6.15651 41.7833 6.15651 37.1714 1.17213C35.5542 -0.577869 33.2182 -0.249743 31.5771 1.45338C27.025 6.15651 18.7714 6.14088 14.1833 1.18776C12.5661 -0.562244 10.1943 -0.202869 8.54115 1.50026C6.68437 3.40651 4.22865 4.64088 1.62917 5.00026C0.682813 5.12526 0 6.21901 0 7.45338V12.4846C0 13.9065 0.910417 15.1096 2.00052 14.9846C5.45052 14.594 8.72083 13.2034 11.512 10.9378C18.2802 16.344 27.9234 16.2659 34.512 10.9378C41.2802 16.344 50.9234 16.2659 57.512 10.9378C60.3031 13.1565 63.6094 14.5784 66.9875 14.969C68.0776 15.094 68.988 13.8909 68.988 12.469V7.53151C69 6.28151 68.3052 5.12526 67.3349 4.98463Z" fill="white"/>
</svg>
