<svg width="19" height="20" viewBox="0 0 19 20" fill="none" xmlns="http://www.w3.org/2000/svg">
<path d="M13.0836 5.00008C12.0412 5.00008 11.0764 5.17664 10.224 5.50241L10.6845 0.693497C10.7246 0.28569 10.3836 -0.0459455 9.99466 0.0052256C7.03709 0.395845 4.75007 3.03292 4.75007 6.22779C4.75007 7.32504 4.9178 8.34065 5.22729 9.2379L0.658822 8.75315C0.271406 8.71096 -0.0436482 9.06994 0.00496432 9.47931C0.376053 12.5925 2.88127 14.9999 5.9164 14.9999C6.95879 14.9999 7.92362 14.8234 8.77601 14.4976L8.31549 19.3065C8.27652 19.7139 8.61644 20.046 9.00534 19.9948C11.9629 19.6042 14.2499 16.9671 14.2499 13.7722C14.2499 12.675 14.0822 11.6594 13.7727 10.7621L18.3412 11.2469C18.7286 11.2879 19.0436 10.9301 18.995 10.5207C18.6239 7.40746 16.1187 5.00008 13.0836 5.00008V5.00008ZM9.5 11.25C9.26514 11.25 9.03555 11.1767 8.84027 11.0393C8.64499 10.902 8.49279 10.7068 8.40291 10.4784C8.31303 10.2499 8.28952 9.99862 8.33533 9.75614C8.38115 9.51367 8.49425 9.29095 8.66032 9.11613C8.8264 8.94132 9.03798 8.82227 9.26833 8.77404C9.49868 8.72581 9.73745 8.75056 9.95443 8.84517C10.1714 8.93978 10.3569 9.09999 10.4874 9.30555C10.6178 9.51111 10.6875 9.75278 10.6875 10C10.6875 10.3315 10.5624 10.6495 10.3397 10.8839C10.117 11.1183 9.81494 11.25 9.5 11.25V11.25Z" fill="white"/>
</svg>
